<svg xmlns="http://www.w3.org/2000/svg" viewBox="0 0 32 30" x="0px" y="0px"><path fill="#000" fill-rule="evenodd" d="M27 22a2.993 2.993 0 0 1-2.815-2h1.075a6.712 6.712 0 0 0 4.609-1.835c.08.268.131.546.131.835 0 1.654-1.346 3-3 3zM7 22a2.993 2.993 0 0 1-2.815-2h5.63A2.993 2.993 0 0 1 7 22zM3 9c-.552 0-1-.449-1-1V3c0-.551.448-1 1-1h5c.552 0 1 .449 1 1v6H3zm23-4v1c0 .551-.448 1-1 1h-1.47l-.75-3H25c.552 0 1 .449 1 1zm6 7.738l-.428-.298A7.949 7.949 0 0 0 27 11c-.818 0-1.616.135-2.376.374L24.03 9H25c1.654 0 3-1.346 3-3V5c0-1.654-1.346-3-3-3h-2.797a3.492 3.492 0 0 0-3.156-2H17v2h2.047a1.5 1.5 0 0 1 1.457 1.138l2.27 9.081a7.998 7.998 0 0 0-3.003 3.352l1.806.858A6.03 6.03 0 0 1 27 13c1.05 0 2.066.272 2.971.791A4.748 4.748 0 0 1 25.26 18H2.044c.15-1.698.691-3.205 1.585-4.402C4.897 11.898 6.755 11 9 11h3.639c.298 0 .57.125.763.354a.982.982 0 0 1 .224.81l-.612 3.671 1.972.33.613-3.672A3 3 0 0 0 12.639 9H11V3c0-1.654-1.346-3-3-3H3C1.346 0 0 1.346 0 3v5c0 1.654 1.346 3 3 3h.345c-.484.41-.927.875-1.32 1.401C.7 14.177 0 16.458 0 19v1h2.102A5.007 5.007 0 0 0 7 24a5.007 5.007 0 0 0 4.898-4h10.204A5.007 5.007 0 0 0 27 24c2.757 0 5-2.243 5-5 0-.933-.275-1.838-.77-2.623.49-.933.77-1.992.77-3.117v-.522z"/><text x="0" y="39" fill="#000000" font-size="5px" font-weight="bold" font-family="'Helvetica Neue', Helvetica, Arial-Unicode, Arial, Sans-serif">Created by Denis Shumaylov</text><text x="0" y="44" fill="#000000" font-size="5px" font-weight="bold" font-family="'Helvetica Neue', Helvetica, Arial-Unicode, Arial, Sans-serif">from the Noun Project</text></svg>