<svg xmlns="http://www.w3.org/2000/svg" xmlns:xlink="http://www.w3.org/1999/xlink" version="1.1" x="0px" y="0px" viewBox="0 0 480 600" style="enable-background:new 0 0 480 480;" xml:space="preserve"><g><g><path style="" d="M118.8,248.16c0-5.681,0-11.36,0-17.041    c0.083-0.423,0.211-0.844,0.243-1.271c0.96-12.905,4.094-25.289,9.04-37.217c7.335-17.69,18.525-32.571,33.061-44.975    c19.02-16.23,41.011-25.51,65.855-28.105c1.06-0.111,2.107-0.338,3.161-0.512c5.92,0,11.84,0,17.76,0    c0.341,0.082,0.679,0.213,1.023,0.24c14.914,1.153,29.127,5.014,42.577,11.485c25.036,12.047,43.538,30.816,56.078,55.494    c7.214,14.196,11.007,29.41,12.041,45.232c0.443,6.793,0.382,13.655-0.374,20.487c-1.302,11.765-4.169,23.105-8.698,34.024    c-7.536,18.168-19.103,33.374-34.125,45.976c-18.77,15.743-40.442,24.657-64.76,27.262c-1.1,0.118-2.188,0.344-3.282,0.52    c-5.841,0-11.681,0-17.521,0c-0.346-0.08-0.688-0.208-1.038-0.232c-12.301-0.848-24.114-3.797-35.549-8.322    c-18.784-7.435-34.529-19.063-47.494-34.512c-15.147-18.049-24.198-38.759-27.144-62.138    C119.386,252.421,119.086,250.292,118.8,248.16z M187.944,150.976c0.183,0.222,0.22,0.313,0.283,0.336    c4.149,1.553,8.293,3.118,12.453,4.643c2.79,1.022,5.264,0.404,7.423-1.585c0.352-0.325,0.669-0.687,1.001-1.033    c4.864-5.061,10.677-7.181,17.62-5.525c6.827,1.628,12.853,4.965,18.581,8.92c4.291,2.963,7.602,6.764,9.563,11.583    c1.575,3.874,2.995,7.83,4.184,11.838c2.275,7.677,1.378,14.958-2.942,21.847c-4.533,7.229-9.452,14.16-14.857,20.756    c-2.713,3.311-5.391,6.648-8.764,9.341c-3.001,2.396-6.32,3.168-10.005,1.962c-1.401-0.458-2.756-1.057-4.134-1.587    c-0.521-0.2-1.033-0.458-1.573-0.562c-0.84-0.161-1.628,0.168-1.801,0.997c-0.125,0.602,0.015,1.482,0.402,1.906    c0.463,0.508,1.295,0.719,2.001,0.96c2.564,0.877,5.204,1.566,7.702,2.601c3.2,1.325,5.419,3.642,6.022,7.213    c0.126,0.748,0.199,1.505,0.292,2.259c0.076,0.616,0.388,0.901,0.973,0.581c1.854-1.018,3.877-0.917,5.861-0.829    c10.053,0.448,19.647,2.904,28.898,6.779c5.039,2.11,9.811,4.658,13.841,8.448c4.695,4.416,7.351,9.657,6.041,16.187    c-0.757,3.773-1.913,7.51-3.296,11.106c-3.642,9.466-8.482,18.359-13.816,26.955c-4.632,7.464-9.632,14.699-14.455,22.045    c-0.153,0.233-0.298,0.729-0.194,0.821c0.229,0.206,0.64,0.359,0.938,0.311c0.903-0.149,1.783-0.438,2.683-0.614    c19.572-3.847,36.598-12.605,51.021-26.405c10.068-9.632,17.949-20.782,23.426-33.611c0.621-1.456,0.531-1.649-0.922-2.194    c-2.355-0.882-4.738-1.702-7.049-2.688c-4.934-2.106-9.908-4.264-13.818-8.032c-5.897-5.682-10.302-12.416-12.889-20.23    c-2.299-6.944-1.33-13.468,2.793-19.536c4.85-7.137,11.223-12.529,18.799-16.557c4.633-2.463,9.512-3.686,14.791-2.884    c1.164,0.177,1.41-0.188,0.984-1.402c-3.082-8.796-7.024-17.196-12.523-24.731c-19.772-27.091-46.142-42.377-79.937-43.934    c-17.116-0.788-33.485,2.461-48.917,10.053C192.386,148.587,190.197,149.796,187.944,150.976z M230.425,341.188    c1.075,0.094,1.355-0.551,1.416-1.475c0.303-4.588,0.624-9.174,0.943-13.761c0.511-7.339,1.056-14.676,1.53-22.018    c0.408-6.303-0.846-12.225-4.115-17.701c-1.72-2.881-3.257-5.871-4.881-8.809c-2.305-4.17-2.666-8.454-0.894-12.922    c0.838-2.113,1.556-4.277,2.275-6.437c0.368-1.104,0.09-1.41-0.961-1.079c-3.091,0.97-6.126,0.709-9.007-0.62    c-4.749-2.191-9.445-4.498-14.13-6.824c-3.44-1.709-6.124-4.255-8.229-7.495c-5.28-8.124-9.859-16.638-14.2-25.283    c-3.55-7.071-6.947-14.208-9.21-21.835c-0.407-1.371-1.257-2.685-2.16-3.82c-3.176-3.994-7.514-6.377-12.091-8.39    c-1.909-0.839-2.015-0.814-3.162,0.962c-8.591,13.307-14.017,27.767-15.814,43.539c-1.311,11.496-0.956,22.964,1.645,34.224    c4.174,18.07,12.582,34.046,25.107,47.749c12.539,13.717,28.116,22.57,45.742,28.064    C216.825,339.315,223.554,340.593,230.425,341.188z M181.946,162.642c-0.039-0.11-0.079-0.221-0.118-0.331    c-1.631,0.581-3.471,0.858-4.851,1.805c-2.892,1.984-5.64,4.209-8.262,6.543c-2.463,2.191-2.276,3.137,0.5,4.901    c4.686,2.979,8.897,6.506,11.469,11.503c1.431,2.781,2.206,5.894,3.355,8.826c4.55,11.604,10.544,22.489,16.685,33.296    c0.237,0.417,1.029,0.871,1.412,0.765c0.475-0.132,1.016-0.774,1.144-1.292c0.954-3.842,3.498-6.426,6.715-8.376    c1.144-0.693,2.6-1.025,3.953-1.189c2.986-0.361,5.757,0.575,8.452,1.787c2.581,1.16,3.592,0.931,5.478-1.188    c1.276-1.434,2.521-2.896,3.754-4.367c5.588-6.663,10.596-13.735,14.937-21.273c0.898-1.561,1.82-3.149,1.553-5.058    c-0.321-2.292-0.553-4.614-1.104-6.855c-1.907-7.777-5.15-14.658-12.969-18.264c-0.47-0.217-0.894-0.537-1.366-0.748    c-2.186-0.976-4.342-2.036-6.582-2.87c-3.834-1.427-6.338-0.675-9.142,2.338c-4.625,4.971-10.299,7.173-16.998,5.616    c-3.438-0.799-6.736-2.229-10.071-3.445C187.301,163.823,184.766,162.713,181.946,162.642z M244.728,328.851    c0.006,0.001,0.011,0.001,0.017,0.002c-0.031,0.679-0.122,1.362-0.065,2.033c0.024,0.292,0.297,0.672,0.56,0.798    c0.19,0.091,0.593-0.114,0.821-0.29c0.244-0.188,0.401-0.492,0.586-0.753c8.165-11.579,15.61-23.597,21.942-36.282    c2.571-5.151,4.931-10.396,6.276-16.033c0.578-2.417,0.147-4.576-1.78-6.211c-1.609-1.365-3.241-2.777-5.071-3.793    c-8.097-4.493-16.843-7.046-25.995-8.251c-2.139-0.281-3.064,0.323-3.881,2.362c-0.682,1.705-1.246,3.459-1.97,5.145    c-0.794,1.848-0.637,3.527,0.383,5.252c1.708,2.889,3.353,5.817,4.958,8.765c2.805,5.146,4.832,10.567,4.903,16.498    c0.055,4.553-0.08,9.116-0.345,13.663C245.734,317.46,245.184,323.152,244.728,328.851z M341.305,239.889    c0-2.318,0.127-4.644-0.027-6.952c-0.289-4.318-1.804-8.165-4.87-11.318c-2.073-2.132-4.501-2.781-7.331-1.779    c-0.526,0.187-1.054,0.376-1.569,0.59c-5.913,2.451-10.554,6.558-14.659,11.338c-3.414,3.975-4.217,8.46-1.821,13.138    c1.759,3.432,3.925,6.668,6.069,9.885c1.689,2.532,3.998,4.498,6.778,5.765c4.065,1.853,8.182,3.599,12.299,5.335    c1.556,0.656,1.786,0.479,2.204-1.197C340.404,256.55,341.518,248.293,341.305,239.889z" fill-rule="evenodd" clip-rule="evenodd"/><path style="" d="M248.4,359.76c1.094-0.176,2.183-0.401,3.282-0.52    c24.317-2.604,45.99-11.519,64.76-27.262c15.022-12.602,26.589-27.808,34.125-45.976c4.529-10.919,7.396-22.26,8.698-34.024    c0.756-6.832,0.817-13.694,0.374-20.487c-1.034-15.822-4.827-31.036-12.041-45.232c-12.54-24.678-31.042-43.447-56.078-55.494    c-13.45-6.471-27.663-10.332-42.577-11.485c-0.345-0.027-0.683-0.158-1.023-0.24c37.36,0,74.72,0,112.08,0    c0,80.24,0,160.479,0,240.72C322.8,359.76,285.6,359.76,248.4,359.76z" clip-rule="evenodd" fill="none"/><path style="" d="M118.8,248.16c0.286,2.132,0.586,4.261,0.855,6.396    c2.945,23.379,11.997,44.089,27.144,62.138c12.965,15.448,28.71,27.077,47.494,34.512c11.436,4.525,23.248,7.475,35.549,8.322    c0.35,0.024,0.692,0.152,1.038,0.232c-37.34,0-74.68,0-112.08,0C118.8,322.56,118.8,285.359,118.8,248.16z" clip-rule="evenodd" fill="none"/><path style="" d="M230.16,119.04c-1.053,0.173-2.101,0.401-3.161,0.512    c-24.844,2.595-46.835,11.875-65.855,28.105c-14.536,12.404-25.726,27.285-33.061,44.975c-4.946,11.928-8.08,24.312-9.04,37.217    c-0.032,0.427-0.16,0.848-0.243,1.271c0-37.34,0-74.68,0-112.08C155.92,119.04,193.04,119.04,230.16,119.04z" clip-rule="evenodd" fill="none"/><path style="" d="M187.944,150.976c2.252-1.18,4.442-2.389,6.683-3.492    c15.431-7.592,31.801-10.841,48.917-10.053c33.795,1.557,60.164,16.842,79.937,43.934c5.499,7.535,9.441,15.935,12.523,24.731    c0.426,1.214,0.18,1.579-0.984,1.402c-5.279-0.802-10.158,0.42-14.791,2.884c-7.576,4.028-13.949,9.42-18.799,16.557    c-4.123,6.068-5.092,12.591-2.793,19.536c2.587,7.814,6.991,14.549,12.889,20.23c3.91,3.769,8.885,5.926,13.818,8.032    c2.311,0.986,4.693,1.807,7.049,2.688c1.453,0.545,1.543,0.738,0.922,2.194c-5.477,12.829-13.357,23.979-23.426,33.611    c-14.423,13.8-31.448,22.559-51.021,26.405c-0.899,0.177-1.779,0.465-2.683,0.614c-0.299,0.049-0.709-0.104-0.938-0.311    c-0.104-0.093,0.041-0.588,0.194-0.821c4.823-7.346,9.823-14.581,14.455-22.045c5.334-8.596,10.175-17.489,13.816-26.955    c1.383-3.597,2.539-7.333,3.296-11.106c1.31-6.529-1.346-11.771-6.041-16.187c-4.03-3.79-8.802-6.338-13.841-8.448    c-9.251-3.875-18.845-6.331-28.898-6.779c-1.984-0.088-4.007-0.188-5.861,0.829c-0.585,0.32-0.897,0.035-0.973-0.581    c-0.093-0.754-0.166-1.511-0.292-2.259c-0.604-3.571-2.822-5.888-6.022-7.213c-2.498-1.034-5.137-1.724-7.702-2.601    c-0.706-0.241-1.538-0.452-2.001-0.96c-0.387-0.424-0.526-1.305-0.402-1.906c0.172-0.829,0.96-1.158,1.801-0.997    c0.54,0.104,1.052,0.361,1.573,0.562c1.378,0.53,2.733,1.128,4.134,1.587c3.686,1.207,7.004,0.434,10.005-1.962    c3.373-2.693,6.05-6.03,8.764-9.341c5.405-6.596,10.324-13.528,14.857-20.756c4.32-6.889,5.218-14.17,2.942-21.847    c-1.188-4.009-2.608-7.964-4.184-11.838c-1.961-4.82-5.271-8.62-9.563-11.583c-5.728-3.955-11.753-7.292-18.581-8.92    c-6.943-1.656-12.756,0.464-17.62,5.525c-0.333,0.346-0.649,0.708-1.001,1.033c-2.16,1.99-4.634,2.608-7.423,1.585    c-4.16-1.525-8.304-3.09-12.453-4.643C188.165,151.289,188.127,151.198,187.944,150.976z" clip-rule="evenodd" fill="none"/><path style="" d="M230.425,341.188c-6.871-0.596-13.6-1.873-20.195-3.929    c-17.626-5.494-33.204-14.348-45.742-28.064c-12.525-13.703-20.933-29.679-25.107-47.749c-2.601-11.26-2.956-22.728-1.645-34.224    c1.798-15.772,7.223-30.232,15.814-43.539c1.146-1.776,1.253-1.802,3.162-0.962c4.577,2.012,8.915,4.396,12.091,8.39    c0.903,1.135,1.753,2.449,2.16,3.82c2.263,7.627,5.66,14.765,9.21,21.835c4.34,8.645,8.919,17.159,14.2,25.283    c2.105,3.24,4.789,5.786,8.229,7.495c4.685,2.326,9.382,4.633,14.13,6.824c2.88,1.329,5.916,1.59,9.007,0.62    c1.051-0.331,1.33-0.025,0.961,1.079c-0.719,2.159-1.437,4.323-2.275,6.437c-1.772,4.468-1.412,8.752,0.894,12.922    c1.624,2.938,3.161,5.928,4.881,8.809c3.27,5.477,4.523,11.398,4.115,17.701c-0.474,7.342-1.019,14.679-1.53,22.018    c-0.319,4.587-0.641,9.173-0.943,13.761C231.78,340.638,231.5,341.282,230.425,341.188z" clip-rule="evenodd" fill="none"/><path style="" d="M181.946,162.642c2.819,0.071,5.354,1.182,7.945,2.125    c3.335,1.216,6.632,2.646,10.071,3.445c6.699,1.557,12.373-0.646,16.998-5.616c2.804-3.013,5.308-3.765,9.142-2.338    c2.24,0.834,4.396,1.894,6.582,2.87c0.472,0.211,0.896,0.53,1.366,0.748c7.818,3.606,11.062,10.487,12.969,18.264    c0.551,2.241,0.782,4.563,1.104,6.855c0.268,1.909-0.654,3.497-1.553,5.058c-4.341,7.539-9.349,14.611-14.937,21.273    c-1.233,1.471-2.478,2.933-3.754,4.367c-1.886,2.119-2.896,2.348-5.478,1.188c-2.695-1.211-5.466-2.148-8.452-1.787    c-1.354,0.164-2.809,0.496-3.953,1.189c-3.217,1.95-5.761,4.534-6.715,8.376c-0.128,0.518-0.669,1.16-1.144,1.292    c-0.383,0.106-1.175-0.347-1.412-0.765c-6.141-10.808-12.135-21.693-16.685-33.296c-1.149-2.932-1.924-6.045-3.355-8.826    c-2.571-4.997-6.783-8.525-11.469-11.503c-2.776-1.765-2.963-2.71-0.5-4.901c2.623-2.333,5.371-4.559,8.262-6.543    c1.38-0.947,3.219-1.225,4.851-1.805C181.868,162.421,181.907,162.531,181.946,162.642z" clip-rule="evenodd" fill="none"/><path style="" d="M244.728,328.851c0.456-5.698,1.007-11.391,1.339-17.096    c0.265-4.547,0.399-9.11,0.345-13.663c-0.071-5.931-2.099-11.352-4.903-16.498c-1.606-2.947-3.25-5.876-4.958-8.765    c-1.02-1.725-1.177-3.404-0.383-5.252c0.725-1.686,1.288-3.439,1.97-5.145c0.816-2.039,1.742-2.644,3.881-2.362    c9.152,1.205,17.898,3.758,25.995,8.251c1.83,1.016,3.462,2.428,5.071,3.793c1.928,1.635,2.358,3.794,1.78,6.211    c-1.346,5.638-3.705,10.882-6.276,16.033c-6.332,12.686-13.777,24.703-21.942,36.282c-0.185,0.261-0.342,0.565-0.586,0.753    c-0.229,0.176-0.631,0.381-0.821,0.29c-0.263-0.126-0.535-0.506-0.56-0.798c-0.057-0.671,0.034-1.354,0.065-2.033    C244.738,328.852,244.733,328.852,244.728,328.851z" clip-rule="evenodd" fill="none"/><path style="" d="M341.305,239.889c0.213,8.404-0.9,16.661-2.928,24.804    c-0.418,1.677-0.648,1.854-2.204,1.197c-4.117-1.736-8.233-3.482-12.299-5.335c-2.78-1.267-5.089-3.232-6.778-5.765    c-2.145-3.217-4.311-6.453-6.069-9.885c-2.396-4.678-1.593-9.163,1.821-13.138c4.105-4.78,8.746-8.887,14.659-11.338    c0.516-0.214,1.043-0.404,1.569-0.59c2.83-1.002,5.258-0.354,7.331,1.779c3.066,3.153,4.581,7,4.87,11.318    C341.432,235.245,341.305,237.571,341.305,239.889z" clip-rule="evenodd" fill="none"/></g></g><text x="0" y="495" fill="#000000" font-size="5px" font-weight="bold" font-family="'Helvetica Neue', Helvetica, Arial-Unicode, Arial, Sans-serif">Created by Jared Zimmerman</text><text x="0" y="500" fill="#000000" font-size="5px" font-weight="bold" font-family="'Helvetica Neue', Helvetica, Arial-Unicode, Arial, Sans-serif">from the Noun Project</text></svg>