<svg xmlns="http://www.w3.org/2000/svg" xmlns:xlink="http://www.w3.org/1999/xlink" 
version="1.1" x="0px" y="0px" viewBox="0 0 100 125" enable-background="new 0 0 100 100" 
xml:space="preserve">
<path d="M50,5C25.147,5,5,25.146,5,50c0,24.854,20.147,45,45,45c24.854,0,45-20.146,
45-45C95,25.146,74.854,5,50,5z M76.107,76.114  c-0.844,0.846-1.953,1.331-3.144,
1.382L72.961,77.5l-0.258-0.001c-1.247-0.017-2.419-0.509-3.307-1.394L58.6,65.305  
c-0.896-0.897-1.393-2.09-1.395-3.354c0-0.123,0.025-0.241,0.033-0.363c-3.739,2.815-8.257,
4.361-13.021,4.362  c-5.803,0-11.256-2.26-15.359-6.363c-8.471-8.471-8.47-22.252-0.001-30.722c4.103-4.103,
9.558-6.364,15.362-6.363  c5.802-0.001,11.256,2.26,15.36,6.362c4.104,4.104,6.363,9.56,6.361,15.362c0.002,
4.764-1.545,9.279-4.361,13.02  c0.119-0.009,0.234-0.034,0.354-0.034l0.157,0.004c1.209,0.037,2.343,0.528,
3.206,1.393l10.799,10.799  c0.897,0.896,1.393,2.088,1.396,3.355C77.495,74.027,77.003,75.221,76.107,76.114z"/>
<path d="M44.221,27.653c-4.427,0-8.589,1.724-11.717,4.854c-6.462,6.46-6.461,16.973,0,23.437c3.129,3.13,7.29,
4.853,11.715,4.852  c4.424,0.001,8.586-1.723,11.719-4.854c3.131-3.131,4.854-7.292,
4.854-11.716c0-4.427-1.725-8.589-4.854-11.719  C52.809,29.377,48.646,27.652,44.221,27.653z"/>
<text x="0" y="115" fill="#000000" font-size="5px" font-weight="bold" 
font-family="'Helvetica Neue', Helvetica, Arial-Unicode, Arial, Sans-serif">
Created by Milinda Courey</text><text x="0" y="120" fill="#000000" 
font-size="5px" font-weight="bold" font-family="'Helvetica Neue', Helvetica, 
Arial-Unicode, Arial, Sans-serif">from the Noun Project</text></svg>